<?xml version="1.0" encoding="iso-8859-1"?>
<!-- Generator: Adobe Illustrator 18.1.1, SVG Export Plug-In . SVG Version: 6.00 Build 0)  -->
<svg version="1.1" id="Capa_1" xmlns="http://www.w3.org/2000/svg" xmlns:xlink="http://www.w3.org/1999/xlink" x="0px" y="0px"
	 viewBox="0 0 21.668 21.668" style="enable-background:new 0 0 21.668 21.668;" xml:space="preserve">
<g>
	<g>
		<path d="M2.534,21.668V0h7.023c2.66,0,4.394,0.108,5.202,0.323C16,0.648,17.037,1.355,17.877,2.444
			c0.837,1.091,1.256,2.496,1.256,4.22c0,1.332-0.241,2.447-0.727,3.355c-0.482,0.907-1.093,1.62-1.836,2.137
			c-0.746,0.516-1.5,0.86-2.271,1.028c-1.045,0.204-2.558,0.309-4.538,0.309H6.909v8.175H2.534z M6.909,3.663v6.151h2.395
			c1.728,0,2.878-0.114,3.456-0.342c0.583-0.226,1.042-0.58,1.369-1.063c0.332-0.484,0.497-1.047,0.497-1.685
			c0-0.788-0.232-1.44-0.694-1.951c-0.464-0.512-1.05-0.833-1.758-0.962C11.648,3.714,10.6,3.663,9.025,3.663H6.909z"/>
	</g>
	<g>
	</g>
	<g>
	</g>
	<g>
	</g>
	<g>
	</g>
	<g>
	</g>
	<g>
	</g>
	<g>
	</g>
	<g>
	</g>
	<g>
	</g>
	<g>
	</g>
	<g>
	</g>
	<g>
	</g>
	<g>
	</g>
	<g>
	</g>
	<g>
	</g>
</g>
<g>
</g>
<g>
</g>
<g>
</g>
<g>
</g>
<g>
</g>
<g>
</g>
<g>
</g>
<g>
</g>
<g>
</g>
<g>
</g>
<g>
</g>
<g>
</g>
<g>
</g>
<g>
</g>
<g>
</g>
</svg>
